<?xml version="1.0" standalone="no"?>
<!DOCTYPE svg PUBLIC "-//W3C//DTD SVG 20010904//EN"
 "http://www.w3.org/TR/2001/REC-SVG-20010904/DTD/svg10.dtd">
<svg version="1.0" xmlns="http://www.w3.org/2000/svg"
 width="96.000000pt" height="96.000000pt" viewBox="0 0 96.000000 96.000000"
 preserveAspectRatio="xMidYMid meet">

<g transform="translate(0.000000,96.000000) scale(0.100000,-0.100000)"
fill="#228B22" stroke="none">
<path d="M470 950 c0 -5 -41 -53 -91 -106 -107 -114 -143 -181 -160 -298 -27
-178 36 -313 192 -413 58 -38 59 -39 59 -85 0 -27 5 -48 10 -48 6 0 10 21 10
48 0 46 1 47 59 85 156 100 219 235 192 413 -17 117 -53 184 -160 298 -50 53
-91 101 -91 106 0 6 -4 10 -10 10 -5 0 -10 -4 -10 -10z m92 -122 c43 -45 90
-101 103 -124 62 -106 73 -291 23 -389 -14 -27 -43 -67 -65 -89 -36 -36 -115
-96 -127 -96 -3 0 -6 160 -6 355 0 230 -4 355 -10 355 -6 0 -10 -125 -10 -355
0 -195 -3 -355 -6 -355 -12 0 -91 60 -127 96 -22 22 -51 62 -65 89 -50 97 -39
285 22 390 21 35 174 205 185 205 2 0 40 -37 83 -82z"/>
</g>
</svg>
